<?xml version="1.0" encoding="UTF-8" standalone="no"?>
<svg width="67px" height="66px" viewBox="0 0 67 66" version="1.1" xmlns="http://www.w3.org/2000/svg" xmlns:xlink="http://www.w3.org/1999/xlink" xmlns:sketch="http://www.bohemiancoding.com/sketch/ns">
    <!-- Generator: Sketch 3.3 (11970) - http://www.bohemiancoding.com/sketch -->
    <title>Imported Layers</title>
    <desc>Created with Sketch.</desc>
    <defs></defs>
    <g id="Page-1" stroke="none" stroke-width="1" fill="none" fill-rule="evenodd" sketch:type="MSPage">
        <g id="02.01-landing-page-copy" sketch:type="MSArtboardGroup" transform="translate(-413.000000, -2331.000000)">
            <g id="Imported-Layers" sketch:type="MSLayerGroup" transform="translate(413.633301, 2330.890625)">
                <path d="M65.8217455,32.956 C65.8217455,37.708 64.7930909,42.229 62.9360727,46.299 C59.6362182,53.537 53.7461818,59.3596667 46.4244364,62.623 C42.3073455,64.4575556 37.7340364,65.4744444 32.9258182,65.4744444 C14.7599273,65.4744444 0.0311272727,50.9153333 0.0311272727,32.956 C0.0311272727,14.9966667 14.7599273,0.436333333 32.9258182,0.436333333 C51.0929455,0.436333333 65.8217455,14.9966667 65.8217455,32.956" id="Fill-1" fill="#FF5722" sketch:type="MSShapeGroup"></path>
                <path d="M35.3666992,38.1093749 L46.4244364,62.623 C53.7461818,59.3596667 59.6362182,53.537 62.9360727,46.299 L39.8666992,34.1093749 L35.3666992,38.1093749 Z" id="Fill-2" fill-opacity="0.2" fill="#FFFFFF" sketch:type="MSShapeGroup"></path>
                <path d="M2.79732602,5.26415268 L14.3550629,30.6093751 C21.6768083,27.3460418 27.5668447,21.5233751 30.8666992,14.2853751 L6.79732602,3.26415268 L2.79732602,5.26415268 Z" id="Fill-2-Copy" fill-opacity="0.2" fill="#FFFFFF" sketch:type="MSShapeGroup" transform="translate(16.832013, 16.936764) rotate(-180.000000) translate(-16.832013, -16.936764) "></path>
                <path d="M44.5995636,32.3155556 C44.5995636,38.687 39.3771636,43.8557778 32.9270545,43.8557778 C26.4781818,43.8557778 21.2545455,38.687 21.2545455,32.3155556 C21.2545455,25.9428889 26.4781818,20.7777778 32.9270545,20.7777778 C39.3771636,20.7777778 44.5995636,25.9428889 44.5995636,32.3155556" fill="#FFFFFF" sketch:type="MSShapeGroup"></path>
                <path d="M32.4333496,33.6837563 C32.082629,33.4786739 31.6784086,33.3538411 31.2444661,33.3538411 C29.9307499,33.3538411 28.8666992,34.4178918 28.8666992,35.7316081 C28.8666992,37.0453243 29.9307499,38.109375 31.2444661,38.109375 C32.5581824,38.109375 33.6222331,37.0453243 33.6222331,35.7316081 L33.6222331,29.7871908 L36,29.7871908 L36,27.4094238 L32.4333496,27.4094238 L32.4333496,33.6837563 Z" id="Shape-Copy-8" fill="#FF5722" sketch:type="MSShapeGroup"></path>
            </g>
        </g>
    </g>
</svg>
